<svg xmlns="http://www.w3.org/2000/svg">
<defs>
  <symbol id="icon-logo" viewBox="0 0 380 389">
    <path d="M246 .424c-68.572 9.114-139.893 39.553-192 85.42C32.4 104.859 8.198 129.998 4.29 160 .453 189.438 20.435 215.429 40 235c26.652 26.662 58.594 46.703 87 71.282 39.675 34.331 73.478 81.734 132 73.433 44.924-6.373 73.381-43.164 89.2-82.715 26.552-66.388 36.081-135.823 15.94-205-8.617-29.596-24.965-63.983-52.14-80.536C292.884-.18 267.91-2.488 246 .424z"/>
    <path fill="#fff" d="m19 122-1 2 1-2m355 0 1 1-1-1m-204 1v137l122-72v-1l-54-28.309L170 123z"/>
  </symbol>
</defs>
</svg>
